# AST/ASF file generated using VICON BodyLanguage
# -----------------------------------------------
:version 1.10
:name VICON
:units
  mass 1.0
  length 0.45
  angle deg
:documentation
   .ast/.asf automatically generated from VICON data using
   VICON BodyBuilder and BodyLanguage model FoxedUp or BRILLIANT.MOD
:root
   order TX TY TZ RX RY RZ
   axis XYZ
   position 0 0 0  
   orientation 0 0 0 
:bonedata
  begin
     id 1 
     name lhipjoint
     direction 0.707368 -0.647095 0.284426 
     length 2.60678 
     axis 0 0 0  XYZ
  end
  begin
     id 2 
     name lfemur
     direction 0.34202 -0.939693 0  
     length 6.63812  
     axis 0 0 20  XYZ
    dof rx ry rz
    limits (-160.0 20.0)
           (-70.0 70.0)
           (-60.0 70.0)
  end
  begin
     id 3 
     name ltibia
     direction 0.34202 -0.939693 0   
     length 7.51178   
     axis 0 0 20   XYZ
    dof rx
    limits (-10.0 170.0)
  end
  begin
     id 4 
     name lfoot
     direction 0.121251 -0.333133 0.935051   
     length 1.83716   
     axis -90 7.62852e-016 20   XYZ
    dof rx rz
    limits (-45.0 90.0)
           (-70.0 20.0)
  end
  begin
     id 5 
     name ltoes
     direction 1.53611e-011 -4.21962e-011 1   
     length 0.916133   
     axis -90 7.62852e-016 20   XYZ
    dof rx
    limits (-90.0 20.0)
  end
  begin
     id 6 
     name rhipjoint
     direction -0.692419 -0.660507 0.290321   
     length 2.55385  
     axis 0 0 0  XYZ 
  end
  begin
     id 7 
     name rfemur
     direction -0.34202 -0.939693 0   
     length 7.29079   
     axis 0 0 -20   XYZ
    dof rx ry rz
    limits (-160.0 20.0)
           (-70.0 70.0)
           (-70.0 60.0)
  end
  begin
     id 8 
     name rtibia
     direction -0.34202 -0.939693 0   
     length 7.47143   
     axis 0 0 -20   XYZ
    dof rx
    limits (-10.0 170.0)
 end
 begin
     id 9 
     name rfoot
     direction -0.119907 -0.329441 0.936532   
     length 1.79439  
     axis -90 -7.62852e-016 -20   XYZ
    dof rx rz
    limits (-45.0 90.0)
           (-20.0 70.0)
  end
  begin
     id 10 
     name rtoes
     direction -1.53571e-011 -4.21961e-011 1   
     length 0.896039   
     axis -90 -7.62852e-016 -20   XYZ
    dof rx
    limits (-90.0 20.0)
  end
  begin
     id 11 
     name lowerback
     direction 0.0367721 0.992912 -0.113016   
     length 1.73542   
     axis 0 0 0   XYZ
    dof rx ry rz
    limits (-20.0 45.0)
           (-30.0 30.0)
           (-30.0 30.0)
  end
  begin
     id 12 
     name upperback
     direction -0.000314626 0.990678 0.136227   
     length 1.7514   
     axis 0 0 0   XYZ
    dof rx ry rz
    limits (-20.0 45.0)
           (-30.0 30.0)
           (-30.0 30.0)
  end
  begin
     id 13 
     name thorax
     direction -0.0226159 0.981151 0.191917   
     length 1.71471   
     axis 0 0 0   XYZ
    dof rx ry rz
    limits (-20.0 45.0)
           (-30.0 30.0)
           (-30.0 30.0)
  end
  begin
     id 14 
     name lowerneck
     direction 0.0219333 0.998071 0.0580739   
     length 1.65882   
     axis 0 0 0   XYZ
    dof rx ry rz
    limits (-20.0 45.0)
           (-30.0 30.0)
           (-30.0 30.0)
  end
  begin
     id 15 
     name upperneck
     direction 0.0384529 0.980058 -0.194957   
     length 1.6612   
     axis 0 0 0   XYZ
    dof rx ry rz
    limits (-20.0 45.0)
           (-30.0 30.0)
           (-30.0 30.0)
  end
  begin
     id 16
     name head
     direction 0.00592123 0.997421 -0.0715234  
     length 1.68077  
     axis 0 0 0   XYZ
    dof rx ry rz
    limits (-20.0 45.0)
           (-30.0 30.0)
           (-30.0 30.0)
  end
  begin
     id 17 
     name lclavicle
     direction 0.904803 0.417826 0.0821728  
     length 3.42227  
     axis 0 0 0   XYZ
    dof ry rz
    limits (-20.0 10.0)
           (0.0 20.0)
  end
  begin
     id 18 
     name lhumerus
     direction 1 -4.48965e-011 -2.68786e-027   
     length 5.11878   
     axis -180 -30 -90   XYZ
    dof rx ry rz
    limits (-60.0 90.0)
           (-90.0 90.0)
           (-90.0 90.0)
  end
  begin
     id 19
     name lradius
     direction 1 -4.48965e-011 2.61168e-028   
     length 3.59971   
     axis -180 -30 -90   XYZ
    dof rx
    limits (-10.0 170.0)
  end
  begin
     id 20
     name lwrist
     direction 1 -4.48965e-011 1.58672e-027   
     length 1.79985   
     axis -1.65735e-015 90 90   XYZ
    dof ry
    limits (-180.0 0.0)
 end
  begin
     id 21 
     name lhand
     direction 1 -4.48942e-011 3.17344e-027   
     length 0.62877   
     axis -2.02492e-015 90 90   XYZ
    dof rx rz
    limits (-90.0 90.0)
           (-45.0 45.0)
  end
  begin
     id 22 
     name lfingers
     direction 1 -4.49011e-011 6.34687e-027   
     length 0.506931   
     axis -4.04985e-015 90 90   XYZ
    dof rx
    limits (0.0 90.0)
  end
  begin
     id 23
     name lthumb
     direction 0.707107 -6.34982e-011 0.707107   
     length 0.727854   
     axis -90 45 2.85299e-015   XYZ
    dof rx rz
    limits (-45.0 45.0)
           (-45.0 45.0)
  end
  begin
     id 24 
     name rclavicle
     direction -0.945647 0.32488 0.0143075   
     length 3.52737  
     axis 0 0 0   XYZ 
    dof ry rz
    limits (-10.0 20.0)
           (-20.0 0.0)
  end
  begin
     id 25 
     name rhumerus
     direction -1 -4.48962e-011 1.92182e-027  
     length 5.4902   
     axis -180 30 90   XYZ
    dof rx ry rz
    limits (-90.0 60.0)
           (-90.0 90.0)
           (-90.0 90.0)
  end
  begin
     id 26 
     name rradius
     direction -1 -4.48967e-011 -5.97193e-028   
     length 3.20659   
     axis -180 30 90   XYZ
    dof rx
    limits (-10.0 170.0)
  end
  begin
     id 27 
     name rwrist
     direction -1 -4.48964e-011 1.58672e-027   
     length 1.6033   
     axis -1.65735e-015 -90 -90   XYZ
    dof ry
    limits (-180.0 0.0)
  end
  begin
     id 28
     name rhand
     direction -1 -4.49006e-011 3.17344e-027   
     length 0.691885   
     axis -2.02492e-015 -90 -90   XYZ
    dof rx rz
    limits (-90.0 90.0)
           (-45.0 45.0)
  end
  begin
     id 29
     name rfingers
     direction -1 -4.48908e-011 6.34687e-027   
     length 0.557815   
     axis -4.04985e-015 -90 -90   XYZ
    dof rx
    limits (0.0 90.0)
  end
  begin
     id 30
     name rthumb
     direction -0.707107 -6.34999e-011 0.707107   
     length 0.800915   
     axis -90 -45 -2.85299e-015   XYZ
    dof rx rz
    limits (-45.0 45.0)
           (-45.0 45.0)
  end
:hierarchy
  begin
    root lhipjoint rhipjoint lowerback
    lhipjoint lfemur
    lfemur ltibia
    ltibia lfoot
    lfoot ltoes
    rhipjoint rfemur
    rfemur rtibia
    rtibia rfoot
    rfoot rtoes
    lowerback upperback
    upperback thorax
    thorax lowerneck lclavicle rclavicle
    lowerneck upperneck
    upperneck head
    lclavicle lhumerus
    lhumerus lradius
    lradius lwrist
    lwrist lhand lthumb
    lhand lfingers
    rclavicle rhumerus
    rhumerus rradius
    rradius rwrist
    rwrist rhand rthumb
    rhand rfingers
  end

#!OML:ASF I:\Actors\actors\Patient Classification 1\Patient 1\Session 1\Subject1.ASF
:FULLY-SPECIFIED
:DEGREES
69
root -0.532861 17.5101 7.74404 6.91336 0.352838 -8.31524
lowerback 2.84711 -0.392428 5.45234
upperback -8.71741 0.101794 1.87076
thorax -10.9322 -0.31952 -1.04764
lowerneck -8.64168 -9.57581 -8.09876
upperneck 21.7329 -14.4871 10.1666
head 9.62942 -6.51583 3.1289
rclavicle 2.49475e-014 -4.37326e-014
rhumerus -47.7298 -3.5243 -87.985
rradius 44.8103
rwrist 7.36289
rhand 0.431556 -38.2341
rfingers 7.12502
rthumb 26.0037 -66.4748
lclavicle 2.49475e-014 -4.37326e-014
lhumerus -54.3351 0.244858 87.871
lradius 57.0322
lwrist -37.6906
lhand 3.48534 -2.30306
lfingers 7.12502
lthumb 28.9242 25.4737
rfemur -1.20389 23.6681 27.4775
rtibia 3.511
rfoot -11.9544 -23.1683
rtoes 2.81686
lfemur 8.2837 -41.6682 -15.6993
ltibia -4.58549
lfoot -17.6694 50.4925
ltoes 8.44545
70
root -0.541595 17.5111 7.74796 6.79196 0.538611 -8.34942
lowerback 2.85797 -0.452027 5.39156
upperback -8.68354 0.018222 1.89987
thorax -10.9042 -0.352135 -0.972852
lowerneck -9.00929 -9.30962 -7.78624
upperneck 22.1014 -14.1373 9.98384
head 9.75265 -6.32168 3.04996
rclavicle 8.99501e-015 -1.94809e-014
rhumerus -48.6721 -3.07032 -88.4224
rradius 47.7058
rwrist 5.42641
rhand 1.17543 -39.0819
rfingers 7.12502
rthumb 26.7157 -67.2159
lclavicle 8.99501e-015 -1.94809e-014
lhumerus -55.1098 -2.73702 90.4695
lradius 62.178
lwrist -36.2039
lhand 7.9082 -2.63354
lfingers 7.12502
lthumb 33.1397 24.3371
rfemur -1.06018 23.5891 27.6239
rtibia 3.55099
rfoot -12.0752 -23.2543
rtoes 3.2806
lfemur 8.31988 -41.568 -15.6531
ltibia -4.49104
lfoot -17.6753 50.2377
ltoes 8.41468
71
root -0.550817 17.5114 7.75134 6.68646 0.823097 -8.38522
lowerback 2.83986 -0.550324 5.30421
upperback -8.67571 -0.118561 1.95287
thorax -10.8907 -0.407686 -0.850802
lowerneck -9.26431 -9.03133 -7.62874
upperneck 22.4871 -13.7912 9.9531
head 9.88758 -6.13105 3.05312
rclavicle 1.50579e-014 -4.29375e-014
rhumerus -49.5965 -2.60103 -88.7851
rradius 50.577
rwrist 3.79957
rhand -0.357299 -39.4412
rfingers 7.12502
rthumb 25.2481 -67.7907
lclavicle 1.50579e-014 -4.29375e-014
lhumerus -55.5807 -5.03855 92.78
lradius 67.3213
lwrist -33.2924
lhand 15.0425 -1.89933
lfingers 7.12502
lthumb 39.8916 23.3593
rfemur -0.917798 23.3817 27.7736
rtibia 3.56258
rfoot -12.106 -23.3681
rtoes 3.12054
lfemur 8.18851 -41.2373 -15.4363
ltibia -4.4028
lfoot -17.3916 49.688
ltoes 8.12053
72
root -0.560451 17.5108 7.75283 6.58261 1.13984 -8.41656
lowerback 2.80786 -0.673035 5.15641
upperback -8.68073 -0.290105 2.04665
thorax -10.883 -0.473092 -0.647017
lowerneck -9.44697 -8.75504 -7.34389
upperneck 22.9002 -13.4237 9.70947
head 9.99164 -5.94383 2.96906
rclavicle 6.4605e-016 1.70955e-014
rhumerus -50.458 -2.1475 -89.0262
rradius 53.3318
rwrist 2.78268
rhand 0.35694 -39.7934
rfingers 7.12502
rthumb 25.9322 -68.0446
lclavicle 6.4605e-016 1.70955e-014
lhumerus -55.604 -6.71659 94.8002
lradius 72.2116
lwrist -27.9897
lhand 16.5998 -1.30003
lfingers 7.12502
lthumb 41.3553 23.5024
rfemur -0.780456 23.1678 27.9135
rtibia 3.56237
rfoot -12.1525 -23.5058
rtoes 2.8658
lfemur 8.02 -40.8257 -15.166
ltibia -4.3761
lfoot -16.8432 49.0611
ltoes 7.51817
73
root -0.570348 17.5113 7.75622 6.40026 1.47242 -8.44946
lowerback 2.78264 -0.804149 4.98025
upperback -8.66127 -0.474961 2.15086
thorax -10.85 -0.541308 -0.415321
lowerneck -9.71593 -8.44027 -7.16514
upperneck 23.6202 -13.0052 9.43977
head 10.2267 -5.73417 2.89715
rclavicle -4.62174e-015 -5.96354e-015
rhumerus -51.3022 -1.72477 -89.2846
rradius 56.3166
rwrist 2.20051
rhand 3.31016 -40.8093
rfingers 7.12502
rthumb 28.7569 -68.6146
lclavicle -4.62174e-015 -5.96354e-015
lhumerus -55.151 -7.97466 96.6259
lradius 76.6679
lwrist -20.5762
lhand 16.612 -0.619215
lfingers 7.12502
lthumb 41.3668 24.1795
rfemur -0.517997 23.0286 28.1063
rtibia 3.53973
rfoot -12.2981 -23.719
rtoes 3.057
lfemur 8.11514 -40.726 -15.108
ltibia -4.39888
lfoot -16.4372 48.7107
ltoes 6.99575
74
root -0.576094 17.5217 7.77639 5.83681 1.46249 -8.46236
lowerback 2.88894 -0.814512 4.79441
upperback -8.475 -0.498877 2.22274
thorax -10.6982 -0.52888 -0.235235
lowerneck -9.99041 -8.20695 -6.84423
upperneck 24.316 -12.6865 9.02215
head 10.4475 -5.57525 2.73567
rclavicle -1.03865e-014 7.15625e-015
rhumerus -52.12 -1.33781 -89.5746
rradius 59.5761
rwrist 1.56568
rhand 3.51331 -41.3618
rfingers 7.12502
rthumb 28.9509 -69.134
lclavicle -1.03865e-014 7.15625e-015
lhumerus -54.1582 -8.77714 98.0762
lradius 80.4412
lwrist -9.80373
lhand 15.2115 -0.679434
lfingers 7.12502
lthumb 40.0507 24.5313
rfemur 0.322343 22.8962 28.5003
rtibia 3.43579
rfoot -12.3536 -23.7139
rtoes 2.87747
lfemur 9.34524 -40.9814 -15.8992
ltibia -4.64972
lfoot -16.5701 49.0124
ltoes 6.9914
75
root -0.591544 17.5109 7.75459 6.17152 2.46565 -8.45204
lowerback 2.64184 -1.13048 4.59128
upperback -8.6978 -0.938476 2.33528
thorax -10.8126 -0.722956 0.0535325
lowerneck -10.2299 -7.9826 -6.45226
upperneck 25.0438 -12.3669 8.49127
head 10.6652 -5.4235 2.5233
rclavicle 1.36664e-014 -2.96189e-014
rhumerus -52.8437 -0.992696 -89.7952
rradius 62.7126
rwrist 0.733063
rhand 4.01697 -42.3332
rfingers 7.12502
rthumb 29.4319 -70.0218
lclavicle 1.36664e-014 -2.96189e-014
lhumerus -52.6911 -9.12537 99.1681
lradius 83.125
lwrist 4.28174
lhand 11.3978 -2.46767
lfingers 7.12502
lthumb 36.4509 23.7368
rfemur -0.143558 22.8904 28.3847
rtibia 3.46148
rfoot -12.6042 -24.6425
rtoes 3.50694
lfemur 7.65643 -40.1587 -14.5729
ltibia -4.27947
lfoot -14.9392 47.4006
ltoes 4.94471
76
root -0.59849 17.5139 7.75988 5.96869 2.70176 -8.5749
lowerback 2.55239 -1.2321 4.52093
upperback -8.70918 -1.07503 2.46484
thorax -10.7718 -0.776032 0.246193
lowerneck -10.2007 -7.71247 -6.13837
upperneck 25.6643 -11.9871 8.0503
head 10.8023 -5.25498 2.3735
rclavicle 3.18055e-015 -1.25234e-014
rhumerus -53.4466 -0.757819 -89.9286
rradius 65.626
rwrist -0.317267
rhand 4.85455 -43.4268
rfingers 7.12502
rthumb 30.2312 -70.9719
lclavicle 3.18055e-015 -1.25234e-014
lhumerus -50.7138 -8.82877 99.6454
lradius 84.4991
lwrist 20.9591
lhand 10.5018 -4.95248
lfingers 7.12502
lthumb 35.6021 21.4608
rfemur 0.138637 22.8158 28.6867
rtibia 3.43829
rfoot -12.72 -24.8393
rtoes 3.63806
lfemur 7.81199 -39.9144 -14.4188
ltibia -4.37682
lfoot -14.4209 47.0016
ltoes 4.26539
77
root -0.604579 17.5158 7.76309 5.86282 2.91734 -8.69773
lowerback 2.40106 -1.32552 4.51405
upperback -8.77037 -1.19995 2.56474
thorax -10.7518 -0.831251 0.370011
lowerneck -10.3686 -7.41873 -5.68945
upperneck 26.6375 -11.5928 7.48739
head 11.0981 -5.06652 2.15155
rclavicle 1.58531e-014 -3.49861e-014
rhumerus -53.9266 -0.712956 -89.9764
rradius 68.4118
rwrist -1.609
rhand 6.04981 -44.6472
rfingers 7.12502
rthumb 31.3708 -71.9774
lclavicle 1.58531e-014 -3.49861e-014
lhumerus -48.5036 -8.42112 99.9508
lradius 84.6777
lwrist 39.6606
lhand 11.6101 -5.63356
lfingers 7.12502
lthumb 36.6518 20.5201
rfemur 0.279975 22.8171 28.9416
rtibia 3.44024
rfoot -12.7829 -25.0525
rtoes 3.73865
lfemur 7.78984 -39.6579 -14.1466
ltibia -4.43742
lfoot -14.0646 46.5996
ltoes 3.90126
78
root -0.606776 17.5119 7.76835 5.89549 3.04209 -8.75119
lowerback 2.06977 -1.38964 4.53658
upperback -8.83999 -1.29895 2.61863
thorax -10.6331 -0.878298 0.419161
lowerneck -10.7226 -7.11354 -5.11333
upperneck 27.7503 -11.144 6.69904
head 11.4675 -4.85907 1.82523
rclavicle -5.26779e-015 -2.127e-014
rhumerus -54.2704 -0.877218 -89.9518
rradius 71.0999
rwrist -2.97821
rhand 7.45213 -46.2691
rfingers 7.12502
rthumb 32.7059 -73.3309
lclavicle -5.26779e-015 -2.127e-014
lhumerus -46.3064 -8.3586 100.422
lradius 84.3909
lwrist 55.9786
lhand 10.8615 -7.91626
lfingers 7.12502
lthumb 35.943 18.4142
rfemur 0.255372 22.7943 29.0436
rtibia 3.47818
rfoot -12.8206 -25.153
rtoes 3.71704
lfemur 7.70169 -39.4776 -13.9527
ltibia -4.50213
lfoot -13.9303 46.3495
ltoes 3.77484
79
root -0.605083 17.5158 7.7644 5.59761 3.41387 -8.69814
lowerback 2.20377 -1.5818 4.53919
upperback -8.8331 -1.5492 2.62194
thorax -10.7145 -1.0004 0.454789
lowerneck -10.7771 -6.79539 -4.76777
upperneck 28.5088 -10.7159 6.3187
head 11.6949 -4.65604 1.69073
rclavicle -8.69683e-015 1.45113e-014
rhumerus -54.3493 -1.02606 -89.9642
rradius 73.5204
rwrist -4.5781
rhand 8.5317 -47.8263
rfingers 7.12502
rthumb 33.7324 -74.6691
lclavicle -8.69683e-015 1.45113e-014
lhumerus -44.3225 -8.76546 101.146
lradius 84.2847
lwrist 63.8805
lhand 5.5267 -9.99661
lfingers 7.12502
lthumb 30.8722 17.4291
rfemur 0.614567 22.6889 29.107
rtibia 3.44193
rfoot -12.9668 -25.4423
rtoes 3.88341
lfemur 7.8063 -39.2717 -14.0574
ltibia -4.41855
lfoot -13.4828 45.7915
ltoes 3.08952
80
root -0.60241 17.5144 7.76612 5.38835 3.55883 -8.58368
lowerback 2.16502 -1.72242 4.50131
upperback -8.80597 -1.75072 2.57009
thorax -10.6663 -1.09738 0.441312
lowerneck -10.7561 -6.4988 -4.68808
upperneck 29.1648 -10.3951 6.41085
head 11.928 -4.47843 1.76106
rclavicle -1.77912e-014 9.74045e-015
rhumerus -54.1258 -0.905105 -90.1461
rradius 75.6252
rwrist -6.60046
rhand 9.08777 -48.6327
rfingers 7.12502
rthumb 34.2606 -75.3582
lclavicle -1.77912e-014 9.74045e-015
lhumerus -42.8418 -10.3455 102.641
lradius 84.6688
lwrist 63.8152
lhand -8.91634 -14.7346
lfingers 7.12502
lthumb 17.027 14.5391
rfemur 0.915418 22.644 29.0748
rtibia 3.38201
rfoot -13.045 -25.5804
rtoes 3.89972
lfemur 8.06492 -39.2537 -14.3701
ltibia -4.4192
lfoot -13.1953 45.6052
ltoes 2.56859
81
root -0.597044 17.5095 7.77154 5.19639 3.55591 -8.447
lowerback 2.07462 -1.82825 4.50975
upperback -8.74903 -1.91137 2.46191
thorax -10.556 -1.18076 0.33353
lowerneck -10.7358 -6.2309 -4.55194
upperneck 29.6607 -10.114 6.5038
head 12.0996 -4.31643 1.81746
rclavicle 1.81391e-014 4.77083e-015
rhumerus -53.8067 -0.713838 -90.4795
rradius 77.7525
rwrist -8.62666
rhand 8.87621 -48.8617
rfingers 7.12502
rthumb 34.0597 -75.6322
lclavicle 1.81391e-014 4.77083e-015
lhumerus -40.5882 -12.1638 103.853
lradius 82.7248
lwrist 54.2327
lhand -21.5221 -16.4486
lfingers 7.12502
lthumb 4.87019 13.4755
rfemur 1.21859 22.613 28.9872
rtibia 3.30963
rfoot -13.1042 -25.6012
rtoes 3.8928
lfemur 8.53598 -39.6341 -14.9365
ltibia -4.42113
lfoot -13.4187 45.9182
ltoes 2.87613
82
root -0.591482 17.506 7.77443 4.99234 3.47325 -8.42526
lowerback 2.04018 -1.87582 4.65287
upperback -8.67301 -1.97831 2.37253
thorax -10.4618 -1.22842 0.161876
lowerneck -10.6919 -6.01243 -4.51296
upperneck 30.0368 -9.87888 6.6236
head 12.2306 -4.18577 1.89463
rclavicle 2.73329e-015 -1.03368e-014
rhumerus -53.3682 -0.724306 -90.7024
rradius 80.6125
rwrist -8.89948
rhand 10.6729 -53.368
rfingers 7.12502
rthumb 35.7643 -79.742
lclavicle 2.73329e-015 -1.03368e-014
lhumerus -39.4948 -14.4127 105.022
lradius 82.1996
lwrist 44.7916
lhand -32.4031 -12.5244
lfingers 7.12502
lthumb -5.63796 17.3806
rfemur 1.4749 22.5783 29.0145
rtibia 3.31616
rfoot -13.1917 -25.5208
rtoes 3.89803
lfemur 8.99345 -39.8926 -15.3365
ltibia -4.43667
lfoot -13.7751 46.1956
ltoes 3.46376
83
root -0.589298 17.5031 7.77364 4.89184 3.23529 -8.47573
lowerback 1.95274 -1.82236 4.80474
upperback -8.61506 -1.90645 2.3366
thorax -10.3496 -1.20628 0.0253279
lowerneck -10.603 -5.84365 -4.62287
upperneck 30.3584 -9.66983 6.72415
head 12.3397 -4.08819 1.98778
rclavicle 9.93923e-016 1.19271e-014
rhumerus -52.8124 -0.687667 -90.9265
rradius 82.8352
rwrist -10.1856
rhand 7.72914 -54.8019
rfingers 7.12502
rthumb 32.9695 -81.8085
lclavicle 9.93923e-016 1.19271e-014
lhumerus -39.1342 -16.5866 105.99
lradius 82.4947
lwrist 39.8989
lhand -39.3349 -5.86779
lfingers 7.12502
lthumb -12.3265 23.7489
rfemur 1.54592 22.5183 29.0922
rtibia 3.39283
rfoot -13.1533 -25.2724
rtoes 3.56462
lfemur 9.24124 -39.7067 -15.4215
ltibia -4.50738
lfoot -13.9253 46.2085
ltoes 3.72767
